<?xml version="1.0" standalone="no"?><!DOCTYPE svg PUBLIC "-//W3C//DTD SVG 1.1//EN" "http://www.w3.org/Graphics/SVG/1.1/DTD/svg11.dtd"><svg width="100px" height="100px" version="1.1" xmlns="http://www.w3.org/2000/svg" xmlns:xlink="http://www.w3.org/1999/xlink" xml:space="preserve" style="fill-rule:evenodd;clip-rule:evenodd;stroke-linejoin:round;stroke-miterlimit:1.41421;"><g><g id="Layer1"><path d="M20,100l0,-70l60,0l0,70l-30,-22l-30,22Z" style="fill:#5eb480;"/><g transform="matrix(1.71485,0,0,1.71485,-48.5939,0)"><path d="M57.4943,0c9.66182,0 17.4943,7.83245 17.4943,17.4943c0,9.66182 -7.83245,17.4943 -17.4943,17.4943c-9.66182,0 -17.4943,-7.83245 -17.4943,-17.4943c0,-9.66182 7.83245,-17.4943 17.4943,-17.4943Z" style="fill:#5eb480;"/></g><g transform="matrix(1.14323,0,0,1.14323,-15.7293,10)"><path d="M57.4943,0c9.66182,0 17.4943,7.83245 17.4943,17.4943c0,9.66182 -7.83245,17.4943 -17.4943,17.4943c-9.66182,0 -17.4943,-7.83245 -17.4943,-17.4943c0,-9.66182 7.83245,-17.4943 17.4943,-17.4943Z" style="fill:#606262;"/></g></g></g></svg>